<svg width="1024" height="1024" viewBox="0 0 1024 1024" fill="none" xmlns="http://www.w3.org/2000/svg">
<g clip-path="url(#clip0_1_2)">
<rect width="660" height="512" rx="50" fill="#5F58BA"/>
<rect x="364" y="512" width="660" height="512" rx="50" fill="#2B2B2B"/>
<path d="M660.377 367L745.574 514.565H575.18L660.377 367Z" fill="#2B2B2B"/>
<path d="M279.188 509.103L449.582 509.103L364.385 656.668L279.188 509.103Z" fill="#5F58BA"/>
<path d="M935.738 691.033C945.745 691.033 954.691 693.544 962.703 698.523C970.681 703.482 977.023 710.595 981.703 720.049L981.717 720.076L981.731 720.104C986.524 729.491 989 740.542 989 753.396C989 766.249 986.524 777.391 981.717 786.952L981.71 786.966L981.703 786.98C977.025 796.431 970.678 803.633 962.683 808.753C954.676 813.724 945.737 816.231 935.738 816.231C927.548 816.231 920.434 814.604 914.28 811.47L913.688 811.161C912.197 810.351 910.793 809.491 909.474 808.582C905.676 805.967 900.904 806.21 897.438 807.591C894.002 808.96 890.003 812.278 890.003 817.596V877H859.504V692.917H890.035C890.394 697.409 893.862 700.182 896.829 701.305C899.973 702.494 904.346 702.598 907.758 699.955C909.571 698.551 911.558 697.258 913.729 696.081C919.823 692.775 927.107 691.033 935.738 691.033ZM612.617 691.033C628.392 691.033 640.125 694.91 648.431 702.068L648.446 702.082L648.462 702.095C655.74 708.265 660.385 716.099 662.434 725.785H635.225C635.199 725.776 635.144 725.748 635.057 725.677C634.851 725.509 634.588 725.184 634.405 724.726C633.022 721.264 630.798 718.359 627.831 716.056H627.832C623.393 712.482 617.756 710.946 611.434 710.946C606.172 710.946 601.347 711.97 597.631 714.705C593.756 717.392 591.75 721.369 591.75 726.074C591.75 728.882 592.502 731.552 594.13 733.883C595.728 736.171 597.969 737.85 600.517 739.066L600.585 739.098C605.169 741.202 611.871 743.168 620.438 745.065C630.078 747.542 637.792 749.984 643.648 752.373L643.7 752.395L643.751 752.414C649.042 754.438 653.722 757.825 657.801 762.721L657.851 762.781L657.902 762.839C661.641 767.052 663.832 772.999 663.983 781.225C663.977 787.875 662.086 793.745 658.299 798.991L658.292 799.001L658.284 799.011C654.665 804.077 649.244 808.269 641.704 811.441L641.688 811.447L641.672 811.455C634.366 814.589 625.667 816.231 615.46 816.231C604.504 816.231 594.939 814.367 586.67 810.76C578.332 807.123 571.95 802.273 567.328 796.29C563.816 791.626 561.51 786.621 560.35 781.244H590.095C590.125 781.256 590.191 781.289 590.296 781.376C590.537 781.577 590.836 781.958 591.05 782.485C592.486 786.03 594.875 788.974 598.023 791.322C602.816 794.897 608.572 796.554 614.986 796.554C620.548 796.554 625.595 795.535 629.464 792.819L629.485 792.804L629.508 792.788C633.484 789.932 635.854 785.907 635.854 780.954C635.853 778.148 635.101 775.47 633.435 773.15C631.813 770.893 629.551 769.285 627.004 768.16C622.574 766.059 615.798 763.933 606.956 761.734L606.918 761.725L606.88 761.716L605.146 761.309C596.607 759.276 589.527 757.198 583.866 755.091C578.328 752.879 573.554 749.514 569.504 744.941C565.905 740.735 563.856 734.86 563.855 726.781C563.855 720.417 565.518 714.721 568.84 709.57L569.167 709.073C572.827 703.691 578.191 699.308 585.52 696.019C592.954 692.752 601.942 691.033 612.617 691.033ZM743.971 691.033C752.602 691.033 759.886 692.775 765.98 696.081L766.001 696.092L766.021 696.104C768.191 697.254 770.165 698.512 771.951 699.873C775.37 702.478 779.746 702.311 782.844 701.145C785.726 700.059 789.25 697.365 789.665 692.917H820.205V814.347H789.674C789.314 809.85 785.833 807.076 782.875 805.95C779.737 804.755 775.361 804.627 771.935 807.244C770.077 808.663 768.03 809.971 765.785 811.161L765.764 811.173L765.743 811.184C759.649 814.49 752.365 816.231 743.733 816.231C733.907 816.231 725.044 813.732 717.025 808.753C709.024 803.628 702.592 796.415 697.756 786.952C693.106 777.391 690.709 766.246 690.709 753.396C690.709 740.534 693.11 729.473 697.753 720.079C702.591 710.611 709.02 703.487 717.006 698.523C725.018 693.544 733.964 691.033 743.971 691.033ZM429.499 659V752.926C429.499 763.607 432.147 772.598 438.155 779.151C444.266 785.817 452.973 788.781 463.393 788.781C473.821 788.781 482.563 785.815 488.813 779.21C495.012 772.66 497.761 763.645 497.761 752.926V659H528.259V752.69C528.259 766.735 525.259 778.257 519.534 787.51C513.716 796.913 505.908 803.954 496.034 808.72L496.021 808.727L496.008 808.732C486.188 813.543 475.112 815.996 462.683 815.996C450.252 815.996 439.263 813.62 429.617 808.979C420.545 804.392 413.299 797.674 407.834 788.717L407.311 787.842C401.854 778.403 399 766.76 399 752.69V659H429.499ZM755.812 716.128C746.401 716.128 738.249 719.585 731.634 726.347L731.632 726.348C724.962 733.17 721.918 742.411 721.918 753.396C721.918 764.395 724.967 773.723 731.539 780.819L731.586 780.869L731.634 780.918C738.249 787.679 746.401 791.137 755.812 791.137C765.204 791.137 773.287 787.69 779.753 780.917L779.754 780.918C786.557 773.964 789.706 764.662 789.706 753.632C789.706 742.602 786.557 733.301 779.754 726.347H779.753C773.287 719.574 765.204 716.128 755.812 716.128ZM923.66 716.128C914.542 716.128 906.606 719.373 900.105 725.723L899.457 726.371L898.822 727.057C892.625 733.939 889.766 742.984 889.766 753.632C889.766 764.624 892.813 773.907 899.433 780.867L899.481 780.918C906.096 787.679 914.249 791.137 923.66 791.137C933.072 791.137 941.224 787.679 947.839 780.918L947.862 780.895L947.885 780.87C954.641 773.778 957.791 764.432 957.791 753.396C957.791 742.426 954.673 733.204 947.888 726.397C941.393 719.569 933.203 716.128 923.66 716.128Z" stroke="#5F58BA" stroke-width="10"/>
<path d="M65.4988 142C68.2603 142 70.4988 144.239 70.4988 147V240.926C70.4988 250.818 72.9461 258.434 77.8407 263.773C82.7353 269.112 89.9193 271.781 99.3927 271.781C108.866 271.781 116.129 269.112 121.182 263.773C126.234 258.434 128.76 250.818 128.76 240.926V147C128.76 144.239 130.999 142 133.76 142H164.259C167.021 142 169.259 144.239 169.259 147V240.69C169.259 255.45 166.101 267.934 159.786 278.141C153.47 288.347 144.944 296.041 134.208 301.223C123.629 306.405 111.787 308.996 98.6822 308.996C85.5774 308.996 73.8145 306.483 63.3938 301.459C53.1309 296.277 44.9996 288.583 38.9997 278.376C32.9999 268.012 30 255.45 30 240.69V147C30 144.239 32.2386 142 35 142H65.4988Z" fill="white"/>
<path d="M251.46 309.231C239.934 309.231 229.671 307.269 220.671 303.343C211.671 299.417 204.566 294.079 199.356 287.326C195.26 281.896 192.579 275.98 191.313 269.579C190.748 266.726 193.071 264.244 195.979 264.244H226.111C228.672 264.244 230.722 266.234 231.684 268.608C232.741 271.218 234.517 273.453 237.013 275.314C240.802 278.141 245.46 279.554 250.986 279.554C256.038 279.554 259.907 278.612 262.591 276.727C265.433 274.686 266.854 272.095 266.854 268.955C266.854 265.186 264.88 262.438 260.933 260.711C256.986 258.826 250.591 256.785 241.749 254.587C232.276 252.388 224.381 250.112 218.066 247.756C211.75 245.244 206.303 241.397 201.724 236.215C197.145 230.876 194.856 223.731 194.856 214.781C194.856 207.244 196.908 200.413 201.014 194.289C205.277 188.008 211.434 183.062 219.487 179.45C227.697 175.839 237.407 174.033 248.617 174.033C265.196 174.033 278.222 178.116 287.695 186.281C295.984 193.308 301.233 202.313 303.44 213.295C304.026 216.205 301.688 218.785 298.72 218.785H271.208C268.712 218.785 266.689 216.898 265.763 214.58C264.711 211.948 263.022 209.738 260.696 207.95C257.38 205.281 252.959 203.946 247.433 203.946C242.697 203.946 239.065 204.888 236.539 206.773C234.013 208.5 232.75 210.934 232.75 214.074C232.75 217.843 234.723 220.669 238.67 222.554C242.776 224.438 249.091 226.322 257.617 228.207C267.406 230.719 275.38 233.231 281.538 235.744C287.695 238.099 293.064 242.025 297.642 247.521C302.379 252.86 304.826 260.083 304.984 269.19C304.984 276.884 302.774 283.793 298.353 289.917C294.09 295.884 287.853 300.595 279.643 304.05C271.591 307.504 262.196 309.231 251.46 309.231Z" fill="white"/>
<path d="M321.709 241.397C321.709 227.893 324.235 216.037 329.288 205.831C334.498 195.624 341.524 187.773 350.366 182.277C359.208 176.781 369.076 174.033 379.97 174.033C389.286 174.033 397.417 175.917 404.364 179.686C406.758 180.956 408.964 182.359 410.982 183.896C414.282 186.411 420.706 184.186 420.706 180.037C420.706 177.762 422.551 175.917 424.826 175.917H456.205C458.966 175.917 461.205 178.156 461.205 180.917V302.347C461.205 305.109 458.966 307.347 456.205 307.347H424.938C422.601 307.347 420.706 305.453 420.706 303.116C420.706 298.895 414.324 296.656 410.97 299.218C408.88 300.814 406.599 302.267 404.128 303.579C397.18 307.347 389.049 309.231 379.734 309.231C368.997 309.231 359.208 306.483 350.366 300.988C341.524 295.335 334.498 287.405 329.288 277.198C324.235 266.835 321.709 254.901 321.709 241.397ZM420.706 241.632C420.706 231.583 417.864 223.653 412.18 217.843C406.654 212.033 399.865 209.128 391.812 209.128C383.76 209.128 376.892 212.033 371.207 217.843C365.681 223.496 362.918 231.347 362.918 241.397C362.918 251.446 365.681 259.455 371.207 265.421C376.892 271.231 383.76 274.136 391.812 274.136C399.865 274.136 406.654 271.231 412.18 265.421C417.864 259.612 420.706 251.682 420.706 241.632Z" fill="white"/>
<path d="M531.003 180.149C531.003 184.37 537.359 186.587 540.696 184.002C542.734 182.424 544.95 180.985 547.344 179.686C554.292 175.917 562.423 174.033 571.739 174.033C582.633 174.033 592.501 176.781 601.343 182.277C610.185 187.773 617.132 195.624 622.184 205.831C627.395 216.037 630 227.893 630 241.397C630 254.901 627.395 266.835 622.184 277.198C617.132 287.405 610.185 295.335 601.343 300.988C592.501 306.483 582.633 309.231 571.739 309.231C562.581 309.231 554.45 307.347 547.344 303.579C545.69 302.681 544.121 301.722 542.638 300.7C538.555 297.889 531.003 300.64 531.003 305.596V365C531.003 367.761 528.764 370 526.003 370H495.504C492.743 370 490.504 367.761 490.504 365V180.917C490.504 178.156 492.743 175.917 495.504 175.917H526.771C529.108 175.917 531.003 177.812 531.003 180.149ZM588.791 241.397C588.791 231.347 585.949 223.496 580.265 217.843C574.738 212.033 567.87 209.128 559.66 209.128C551.608 209.128 544.739 212.033 539.055 217.843C533.529 223.653 530.766 231.583 530.766 241.632C530.766 251.682 533.529 259.612 539.055 265.421C544.739 271.231 551.608 274.136 559.66 274.136C567.712 274.136 574.581 271.231 580.265 265.421C585.949 259.455 588.791 251.446 588.791 241.397Z" fill="white"/>
</g>
<defs>
<clipPath id="clip0_1_2">
<rect width="1024" height="1024" fill="white"/>
</clipPath>
</defs>
</svg>
